# xmcd
#
# Track frame offsets: 
#        150
#        17158
#        42062
#        62352
#        75906
#        90445
#
# Disc length: 1318 seconds
#
# Revision: 0
# Processed by: cddbd v1.4PL0 Copyright (c) Steve Scherf et al.
# Submitted via: ExactAudioCopy v0.90b4
#
DISCID=31052406
DTITLE=Hadden Sayers - Hadden Sayers Blues E.P. #1
DYEAR=1900
DGENRE=
TTITLE0=No Tears Left to Cry
TTITLE1=Bring it to Me Slowly
TTITLE2=Down and Out of My Mind
TTITLE3=Falling For You
TTITLE4=Flat Black Automobile
TTITLE5=Unknown
EXTD=
EXTT0=
EXTT1=
EXTT2=
EXTT3=
EXTT4=
EXTT5=
PLAYORDER=
